<svg xmlns="http://www.w3.org/2000/svg" width="157" height="46" viewBox="0 0 157 46"><path fill="#FFF" d="M4.71 35.9c-.98-.34-1.89-.85-2.74-1.62-.93-.85-1.55-2.21-1.82-3.62-.22-1.12-.14-2.3-.14-3.44v-24c0-.89.49-1.77 1.39-1.98.91-.21 1.88-.05 2.66.38v26c0 1.42-.08 3.12 1.12 4.11.42.35-.67-.56 0 0 .2.17.42.32.67.45m133.35-6.33c0-1.53-.1-3.11.07-4.63.18-1.61.75-3.26 1.97-4.38 1.24-1.15 3-1.47 4.64-1.48 1.68-.02 3.47.27 4.8 1.37 1.28 1.07 1.88 2.73 2.09 4.35.19 1.54.09 3.15.09 4.7v9.69l4.15.01V23.32c0-1.95.02-3.88-.76-5.72-.77-1.82-2.08-3.37-3.78-4.39-1.72-1.03-3.67-1.49-5.66-1.58-2.04-.09-4.16.14-6.04.97-1.82.81-3.35 2.1-4.37 3.83-.94 1.6-1.35 3.41-1.35 5.27v13.78l4.15.01v-9.64zm-12.04 1.33c-.68 1.9-2.1 3.45-3.9 4.35-1.81.91-4.03 1.07-5.98.52-4.03-1.14-6.21-5.39-5.74-9.39.24-2.01 1.1-3.93 2.59-5.33 1.52-1.42 3.57-2.05 5.62-2.02 2.04.03 4.05.72 5.52 2.18 1.46 1.45 2.27 3.39 2.45 5.43.12 1.45-.06 2.9-.56 4.26zm4.03-8.14c-.76-1.81-1.94-3.46-3.47-4.68-1.6-1.28-3.5-2.12-5.51-2.51-4.08-.78-8.58.3-11.55 3.29-3 3-4.21 7.43-3.25 11.56.93 4 3.85 7.18 7.66 8.62 3.83 1.45 8.41.93 11.8-1.38 3.46-2.36 5.41-6.43 5.25-10.6-.06-1.48-.36-2.94-.93-4.3zM94.2 6.87c-.38.43-.55.98-.55 1.55v19.14c0 1.83.02 3.64.96 5.29.98 1.72 2.77 2.77 4.68 3.1 1.06.19 2.15.2 3.22.08 1.02-.11 2.1-.29 3.05-.69 1.08-.43 2.01-.95 2.73-1.58l-1.95-2.89c-1.14.75-2.26 1.24-3.31 1.45-1.53.25-3.78.07-4.67-1.41-.5-.83-.55-1.83-.55-2.77v-12l9.06-.01c.24-.72.55-1.52.39-2.29-.18-.87-.76-1.44-1.64-1.56-.3-.04-.6-.04-.91-.04H97.8v-5.5c-.19-.11-.69-.31-.98-.37-1.19-.24-2.09-.1-2.62.5zm-8.73 28.61V23.37c0-2.35.1-5.12-1.88-6.78-1.49-1.25-3.75-1.38-5.6-1.17-1.93.22-3.77 1.09-4.9 2.72-1.3 1.87-1.27 4.09-1.27 6.25v11.07c0 .04-4.16.02-4.16.01V3.54c0-.58.2-1.18.61-1.6.63-.63 1.69-.63 2.51-.45.15.03 1.04.25 1.04.41v12.52c.85-.9 2.02-1.52 3.14-1.97 1.32-.53 2.72-.77 4.14-.82 2.47-.09 5.04.31 7.09 1.79 2.49 1.79 3.43 4.62 3.43 7.59v14.48l-4.15-.01zm-25.81-8.25c-.68 1.87-1.97 3.37-3.73 4.3-1.81.96-4.02 1.12-5.99.62-1.9-.48-3.55-1.69-4.55-3.38-1.07-1.81-1.42-4.04-1.17-6.11.25-2.01 1.09-3.99 2.64-5.34 1.54-1.34 3.45-1.97 5.47-1.95 2.07.03 4.03.75 5.51 2.23 1.44 1.44 2.18 3.42 2.34 5.42.11 1.4-.03 2.87-.52 4.21zM48.95 44.78c2.18.15 4.4.13 6.53-.4 1.94-.48 3.78-1.37 5.24-2.75 1.39-1.31 2.31-3.07 2.88-4.87.82-2.58.77-5.27.77-7.93 0-2.29.14-4.66-.18-6.93-.55-3.94-2.86-7.47-6.53-9.17-3.73-1.73-8.53-1.51-12.05.61-3.65 2.2-5.79 6.15-5.83 10.39-.04 4.09 1.75 8.16 5.23 10.45 1.72 1.13 3.75 1.7 5.78 1.87 2.04.17 4.14-.03 6.03-.87 1.32-.58 2.51-1.46 3.47-2.54-.07 1.87-.44 3.64-1.51 5.21-1.07 1.57-2.68 2.59-4.55 2.95-3.66.69-7.35.19-10.81-1.16l-1.16 3.48c2.46.96 4.73 1.57 6.69 1.66zM36.64 12.72c-.29-.15-.63-.28-1.04-.39-.84-.19-1.96-.19-2.57.52-.37.43-.54.98-.54 1.54v21.09h4.17l-.02-22.76zm-.15-9.64c-1.09-1.03-2.85-1.05-3.92.01-1.12 1.11-1 2.87.07 3.96 1.03 1.05 2.74 1 3.78.01 1.14-1.07 1.16-2.87.07-3.98zM12.12 22.89c.19-2.07.97-4.1 2.46-5.58 1.41-1.4 3.24-2.1 5.21-2.16 1.84-.06 4.6.19 5.53 2.1.4.83.5 1.88.19 2.75-.3.85-.95 1.41-1.75 1.79-1.36.65-2.93.91-4.42 1.06-2.23.18-4.65.18-7.22.04zm15.06 7.49s-1.4.72-1.47.75c-.87.41-1.76.81-2.7 1.01-1.01.22-2.07.26-3.1.2-1.76-.09-3.54-.53-4.96-1.61-1.4-1.05-2.29-2.61-2.66-4.31 1.44.06 2.87.09 4.31.09 1.98 0 3.99-.09 5.94-.48 1.86-.37 3.74-.94 5.23-2.18 1.6-1.33 2.2-3.34 2.04-5.38-.15-2-1.08-3.75-2.68-4.97-1.52-1.16-3.36-1.66-5.24-1.83-2.14-.19-4.36-.01-6.39.73-3.84 1.41-6.59 4.72-7.47 8.69-.91 4.09-.11 8.61 2.98 11.56 3.01 2.88 7.6 3.9 11.63 3.27 1.36-.21 2.72-.53 3.98-1.08.86-.38 1.66-.85 2.47-1.33l-1.91-3.13z"/></svg>